<?xml version="1.0" encoding="UTF-8"?>
<svg id="Capa_1" xmlns="http://www.w3.org/2000/svg" version="1.1" viewBox="0 0 400 400">
  <!-- Generator: Adobe Illustrator 29.8.1, SVG Export Plug-In . SVG Version: 2.1.1 Build 2)  -->
  <defs>
    <style>
      .st0 {
        fill: #e97573;
      }

      .st1 {
        fill: #d4965d;
      }

      .st2 {
        fill: #efb27f;
      }

      .st3 {
        fill: #e2a674;
      }

      .st4 {
        fill: #67210d;
      }

      .st5 {
        fill: #7f3517;
      }

      .st6 {
        fill: #422918;
      }

      .st7 {
        fill: #c98551;
      }

      .st8 {
        fill: #bb723e;
      }
    </style>
  </defs>
  <g>
    <path class="st7" d="M397.27,189.828c1.474-2.561,2.626-5.201,2.723-8.126.308-9.28-9.753-15.314-13.624-23.77-2.471-5.398-2.301-11.616-4.13-17.259-.153-.473-.32-.939-.499-1.401-.779,1.215-1.77,2.263-3.021,3.017-3.843,2.316-8.889,1.135-12.833-1.008-4.101-2.227-7.663-5.42-10.309-9.239-1.257-1.813-2.322-3.799-2.761-5.955-.44-2.156-.203-4.505.982-6.365.799-1.254,2.02-2.298,2.379-3.737.799-3.204-3.055-6.291-2.083-9.448.415-1.349,1.647-2.306,2.948-2.879,2.52-1.109,5.451-1.067,8.098-.294-.171-6.7.311-13.5-3.331-18.963-4.599-6.9-13.995-8.819-20.094-14.465-10.293-9.529-9.567-27.911-21.538-35.27-8.255-5.074-19.461-2.683-27.965-7.338-3.462-1.895-6.207-4.824-9.263-7.312-14.579-11.87-26.461-6.865-42.84-7.273-14.167-.352-24.802-13.801-39.259-12.678-6.362.494-12.087,4.01-18.348,5.231-10.982,2.142-21.858-2.316-32.725.645-9.879,2.692-20.768,8.295-28.43,15.129-1.078.961-2.121,1.964-3.154,2.979,2.39,1.16,4.615,2.914,5.416,5.401,1.09,3.385-.783,7.037-3.2,9.662-2.514,2.729-5.681,4.864-9.167,6.178-1.655.624-3.409,1.068-5.179,1-1.77-.068-3.564-.69-4.796-1.95-.831-.849-1.418-1.982-2.477-2.529-2.357-1.216-5.497,1.163-7.785-.176-.628-.368-1.066-.964-1.353-1.636-11.4,2.637-22.972,4.53-28.743,14.008-3.604,5.919-3.694,13.35-6.783,19.548-5.884,11.805-20.515,15.984-30.697,24.446-12.918,10.735-18.21,29.624-12.724,45.418,1.255,3.614,3.042,7.216,2.826,11.032-.265,4.684-3.454,8.606-5.952,12.591-7.165,11.425-9.501,26.989-5.924,40.048,4.27,15.59,7.682,28.501,8.888,44.969,1.165,15.915,5.504,33.748,19.506,41.639,2.194,1.237,4.7,2.305,5.942,4.482,1.103,1.932.944,4.29.972,6.509.161,12.83,8.289,25.238,20.053,30.612,4,1.827,8.377,2.91,12.044,5.326,10.531,6.938,12.591,22.916,23.863,28.599,8.525,4.298,19.063,1.84,28.042,4.757,12.314,3.999,24.372,11.162,36.148,16.552,14.038,6.426,30.063,12.946,44.448,7.323,4.234-1.655,8.028-4.29,12.286-5.882,11.44-4.277,24.111-.495,36.302.429,12.618.957,26.122-1.597,35.522-9.989,6.026-5.38,10.071-12.859,16.802-17.344,5.166-3.443,11.328-4.746,17.414-6.289-2.372-2.67-2.206-6.775-1.117-10.179,1.147-3.583,3.153-6.894,5.807-9.58,1.26-1.276,2.689-2.427,4.353-3.112,1.664-.685,3.59-.868,5.27-.225,1.133.433,2.164,1.232,3.377,1.289,2.701.127,4.577-3.397,7.268-3.127,1.149.116,2.112.937,2.777,1.873.53.746.913,1.577,1.168,2.451,2.313-3.262,4.566-6.654,7.068-9.985,3.031-4.035,7.054-6.887,8.807-11.66,2.449-6.667-.502-14.249,2.514-21.001,3.963-8.872,15.458-13.706,20.585-22.377,4.3-7.277.39-14.765,1.24-22.442.742-6.697,2.839-7.182,6.958-12.624,3.696-4.882,2.034-11.848-.485-17.416-2.519-5.569-5.828-11.318-4.93-17.355.736-4.954,4.201-9.105,6.723-13.486Z"/>
    <path class="st1" d="M368.822,170.722c1.261-2.192,2.247-4.45,2.331-6.954.248-7.457-7.33-12.465-10.997-19.04-4.047-2.224-7.564-5.389-10.183-9.169-1.257-1.814-2.322-3.799-2.761-5.955-.44-2.156-.203-4.505.982-6.365.799-1.254,2.02-2.298,2.379-3.737.047-.187.077-.374.094-.56-3.379-4.805-7.136-9.43-8.54-15.054-1.933-7.747.787-16.729-3.652-23.389-3.936-5.905-11.977-7.548-17.196-12.379-8.809-8.155-8.188-23.886-18.432-30.184-7.064-4.343-16.655-2.296-23.932-6.28-2.963-1.622-5.312-4.128-7.927-6.257-12.477-10.158-22.645-5.875-36.662-6.224-12.124-.302-21.225-11.811-33.597-10.85-5.444.423-10.344,3.431-15.702,4.476-9.398,1.833-18.706-1.982-28.006.552-8.455,2.303-17.773,7.099-24.33,12.947-2.642,2.356-5.045,5.005-7.676,7.363.112.242.211.493.294.751,1.09,3.385-.783,7.037-3.2,9.662-1.837,1.994-4.023,3.671-6.427,4.942,5.583-1.269,11.35-2.448,15.99-5.365,3.95-2.483,6.945-6.171,10.421-9.271,5.641-5.031,13.658-9.157,20.932-11.139,8.001-2.18,16.009,1.102,24.094-.475,4.61-.899,8.825-3.487,13.509-3.851,10.644-.827,18.474,9.075,28.904,9.334,12.059.3,20.807-3.385,31.541,5.355,2.25,1.832,4.27,3.988,6.82,5.383,6.261,3.427,14.512,1.667,20.589,5.403,8.813,5.418,8.279,18.952,15.857,25.968,4.49,4.157,11.408,5.57,14.794,10.65,3.819,5.73,1.479,13.457,3.142,20.122,1.977,7.923,9.382,13.538,11.9,21.309,1.346,4.155,1.221,8.733,3.04,12.707,2.85,6.226,10.258,10.668,10.031,17.501-.072,2.154-.92,4.097-2.005,5.983-1.857,3.226-4.408,6.282-4.95,9.93-.66,4.445,1.775,8.678,3.63,12.778,1.855,4.1,3.078,9.228.357,12.823-3.033,4.006-4.577,4.363-5.123,9.294-.626,5.653,2.253,11.165-.913,16.523-3.775,6.384-12.238,9.943-15.155,16.475-2.22,4.971-.048,10.553-1.851,15.462-1.291,3.514-4.252,5.614-6.484,8.584-1.528,2.034-2.929,4.098-4.334,6.114,1.972,2.014,3.543,4.436,4.569,7.263,1.037,2.857,1.488,6.17.019,8.836-.45.817-1.044,1.509-1.74,2.091-.109,1.005-.386,1.979-.882,2.88-1.839,3.339-6.077,4.603-9.916,4.69-3.991.091-8.001-.759-11.605-2.46-1.711-.808-3.355-1.824-4.611-3.23-.711-.797-1.289-1.731-1.643-2.733-3.24.851-6.395,1.861-9.163,3.706-4.956,3.303-7.934,8.809-12.371,12.77-6.92,6.179-16.863,8.059-26.153,7.354-8.976-.681-18.305-3.465-26.728-.316-3.135,1.172-5.928,3.112-9.046,4.331-1.328.519-2.675.897-4.035,1.153.096.13.183.268.26.418.526,1.033.344,2.293-.099,3.363-.293.707-.691,1.361-1.168,1.957.474,1.016.289,2.236-.142,3.276-.87,2.101-2.666,3.737-4.711,4.764-2.044,1.027-4.332,1.492-6.611,1.736-8.543.885-16.877-1.878-21.612-8.976-1.625-2.436-2.806-5.429-2.045-8.249.233-.864.629-1.645,1.146-2.345-.129-.964-.093-1.936.163-2.889.204-.757.533-1.45.959-2.081-7.02-3.484-14.172-7.344-21.444-9.706-6.61-2.147-14.369-.337-20.646-3.502-8.299-4.185-9.815-15.948-17.569-21.056-2.7-1.779-5.923-2.576-8.868-3.921-8.661-3.957-14.645-13.092-14.764-22.538-.021-1.634.096-3.37-.715-4.792-.915-1.603-2.759-2.39-4.375-3.3-10.31-5.81-13.504-18.939-14.362-30.657-.888-12.125-3.4-21.631-6.544-33.109-2.633-9.615-.913-21.074,4.362-29.486,1.84-2.934,4.188-5.822,4.383-9.27.159-2.81-1.156-5.461-2.081-8.122-4.039-11.628-.143-25.535,9.368-33.439,7.497-6.23,18.269-9.307,22.601-17.998,2.274-4.563,2.341-10.035,4.994-14.392,2.297-3.773,5.843-5.913,9.943-7.39-1.696-.11-3.391-.732-4.571-1.938-.831-.849-1.418-1.982-2.477-2.529-2.357-1.216-5.497,1.163-7.785-.176-.245-.144-.462-.322-.652-.527-4.565,1.711-8.503,4.177-11.085,8.417-3.084,5.065-3.161,11.425-5.805,16.729-5.036,10.103-17.556,13.679-26.271,20.921-11.055,9.187-15.584,25.352-10.889,38.868,1.074,3.093,2.603,6.175,2.418,9.441-.227,4.008-2.956,7.365-5.094,10.776-6.131,9.778-8.131,23.097-5.07,34.273.746,2.724,1.462,5.353,2.137,7.931,1.921-.687,3.941-.964,5.93-.538,1.157.248,2.213.712,3.171,1.338,1.266-.227,2.553-.242,3.828.03,4.728,1.012,7.78,5.635,9.254,10.198,1.532,4.745,1.923,9.847,1.132,14.766-.376,2.336-1.03,4.665-2.299,6.668-1.269,2.004-3.21,3.662-5.524,4.243-1.561.391-3.293.31-4.649,1.169-2.016,1.277-2.375,4.036-3.319,6.249,2.268,9.144,6.586,17.526,14.641,22.065,1.878,1.058,4.022,1.973,5.086,3.836.944,1.654.808,3.671.831,5.57.138,10.98,7.094,21.598,17.161,26.197,3.423,1.564,7.169,2.49,10.308,4.558,9.013,5.937,10.775,19.611,20.421,24.475,7.296,3.678,16.314,1.575,23.998,4.071,10.538,3.423,20.857,9.552,30.935,14.165,12.014,5.499,25.728,11.079,38.039,6.267,3.623-1.416,6.87-3.671,10.515-5.034,9.79-3.66,20.634-.424,31.067.367,10.798.819,22.355-1.366,30.399-8.548,5.157-4.604,8.619-11.004,14.379-14.843,6.73-4.485,15.433-4.727,22.881-7.91,11.258-4.811,15.931-14.503,22.806-23.656,2.594-3.453,6.036-5.894,7.537-9.978,2.096-5.706-.43-12.194,2.151-17.973,3.391-7.592,13.228-11.73,17.616-19.15,3.68-6.228.334-12.636,1.062-19.206.635-5.731,2.43-6.146,5.955-10.803,3.163-4.178,1.74-10.139-.415-14.905-2.156-4.766-4.987-9.686-4.219-14.852.63-4.24,3.595-7.792,5.754-11.542Z"/>
    <path class="st3" d="M345.241,158.63c1.085-1.885,1.934-3.829,2.005-5.983.227-6.832-7.181-11.275-10.031-17.501-1.819-3.974-1.694-8.552-3.04-12.707-2.518-7.771-9.923-13.386-11.9-21.309-1.663-6.665.677-14.392-3.142-20.122-3.386-5.08-10.304-6.493-14.794-10.65-7.578-7.016-7.044-20.55-15.857-25.968-6.078-3.736-14.329-1.976-20.589-5.403-2.549-1.395-4.57-3.551-6.82-5.383-10.734-8.739-19.482-5.054-31.541-5.355-10.43-.259-18.26-10.161-28.904-9.334-4.684.364-8.899,2.952-13.509,3.851-8.085,1.577-16.093-1.705-24.094.475-7.274,1.982-15.291,6.107-20.932,11.139-3.476,3.1-6.471,6.788-10.421,9.271-4.64,2.917-10.407,4.096-15.99,5.365-.886.468-1.801.882-2.74,1.236-1.655.624-3.409,1.068-5.179,1-.075-.003-.15-.007-.225-.012-4.099,1.477-7.645,3.617-9.943,7.39-2.654,4.358-2.72,9.829-4.994,14.392-4.332,8.692-15.104,11.768-22.601,17.998-9.511,7.904-13.407,21.811-9.368,33.439.924,2.661,2.239,5.312,2.081,8.122-.195,3.448-2.543,6.336-4.383,9.27-5.275,8.412-6.995,19.871-4.362,29.486,3.144,11.478,5.656,20.984,6.544,33.109.858,11.718,4.052,24.847,14.362,30.657,1.616.911,3.46,1.697,4.375,3.3.812,1.422.695,3.158.715,4.792.119,9.446,6.103,18.581,14.764,22.538,2.945,1.345,6.168,2.142,8.868,3.921,7.754,5.108,9.27,16.872,17.569,21.056,6.277,3.165,14.035,1.355,20.646,3.502,7.273,2.362,14.424,6.223,21.444,9.706,1.561-2.312,4.426-3.789,7.227-4.533,3.707-.983,7.648-1.092,11.405-.314,1.784.369,3.553.948,5.048,1.98,1.495,1.031,2.701,2.557,3.063,4.326.244,1.193.118,2.497.73,3.553,1.277,2.204,4.924,2.045,6.388,4.014,1.361-.256,2.707-.634,4.035-1.153,3.117-1.219,5.91-3.158,9.046-4.331,8.423-3.149,17.752-.365,26.728.316,9.29.704,19.233-1.176,26.153-7.354,4.437-3.961,7.415-9.467,12.371-12.77,2.768-1.844,5.923-2.854,9.163-3.706-.271-.766-.411-1.572-.379-2.385.049-1.265.501-2.553.145-3.768-.793-2.706-4.973-3.354-5.618-6.098-.276-1.172.221-2.401.935-3.375.472-.643,1.036-1.207,1.666-1.694-.227-1.142.262-2.33.956-3.277,1.401-1.911,3.622-3.128,5.944-3.668,2.321-.54,4.749-.453,7.113-.144,5.848.784,11.209,3.154,15.046,7.073,1.405-2.015,2.806-4.08,4.334-6.114,2.232-2.971,5.193-5.07,6.484-8.584,1.803-4.909-.37-10.491,1.851-15.462,2.917-6.532,11.381-10.091,15.155-16.475,3.166-5.358.287-10.871.913-16.523.546-4.931,2.09-5.288,5.123-9.294,2.721-3.595,1.497-8.723-.357-12.823-1.855-4.1-4.291-8.333-3.63-12.778.542-3.648,3.093-6.704,4.95-9.93Z"/>
    <path class="st2" d="M169.388,45.754c-15.86-1.813-25.816,18.144-41.39,21.628-5.472,1.224-11.536.357-16.426,3.08-8.554,4.764-8.5,17.123-14.591,24.744-3.933,4.921-10.083,7.436-15.395,10.857-5.312,3.422-10.321,8.893-9.562,15.124.445,3.652,2.818,6.811,3.609,10.405,1.734,7.875-4.315,15.319-5.255,23.325-1.193,10.149,6.772,20.066,16.732,22.727,9.96,2.661,20.966-1.136,28.428-8.191,7.462-7.056,11.693-16.947,13.544-26.999,1.604-8.713,1.576-17.735,4.129-26.223,2.405-7.996,7.109-15.3,13.415-20.832,7.236-6.347,16.556-10.458,22.385-18.095,7.675-10.055,10.731-30.485.376-31.551Z"/>
    <path class="st7" d="M218.722,58.141c1.909,2.199,6.035.816,8.061,2.911.91.941,1.118,2.329,1.682,3.506.836,1.746,2.486,3.024,4.308,3.715,1.822.69,3.811.841,5.761.77,4.106-.15,8.174-1.268,11.771-3.235,3.46-1.892,6.718-5.047,6.789-8.961.019-1.055-.197-2.075-.581-3.044-1.097,2.653-3.595,4.802-6.208,6.232-3.597,1.967-7.665,3.085-11.771,3.235-1.95.071-3.939-.08-5.761-.77-1.823-.69-3.472-1.969-4.308-3.715-.564-1.177-.772-2.565-1.682-3.506-2.025-2.094-6.151-.712-8.061-2.911-.023-.026-.045-.053-.066-.08-.34.741-.584,1.523-.705,2.332-.182,1.226-.044,2.581.771,3.521Z"/>
    <path class="st5" d="M252.823,43.021c-6.766-6.169-16.147-6.915-24.795-3.817-2.306.835-4.562,1.902-6.42,3.49-1.858,1.589-3.299,3.748-3.657,6.153-.177,1.192-.052,2.506.705,3.441.022.027.044.053.066.08,1.909,2.199,6.035.816,8.061,2.911.91.941,1.118,2.329,1.682,3.506.836,1.746,2.486,3.024,4.308,3.715,1.822.69,3.811.841,5.761.77,4.106-.15,8.174-1.268,11.771-3.235,2.613-1.429,5.111-3.579,6.208-6.232.355-.859.564-1.772.581-2.729.057-3.125-1.949-5.935-4.271-8.052Z"/>
    <path class="st4" d="M224.239,48.266c1.218,1.402,3.849.521,5.141,1.856.58.6.713,1.485,1.073,2.236.533,1.113,1.585,1.929,2.747,2.369,1.162.44,2.431.536,3.674.491,2.619-.096,5.213-.809,7.507-2.063,2.207-1.207,4.285-3.219,4.33-5.715.036-1.993-1.243-3.785-2.723-5.135-4.315-3.935-10.298-4.41-15.813-2.434-1.47.532-2.909,1.213-4.094,2.226-1.185,1.013-2.104,2.39-2.333,3.924-.116.782-.028,1.646.492,2.245Z"/>
    <path class="st7" d="M114.629,231.796c-3.36,1.837-7.158,2.882-10.993,3.022-1.821.067-3.679-.074-5.381-.719-1.702-.645-3.243-1.839-4.023-3.469-.526-1.099-.721-2.396-1.571-3.274-1.892-1.956-5.745-.665-7.528-2.718-.021-.024-.042-.049-.062-.074-.318.692-.546,1.422-.658,2.178-.17,1.145-.042,2.411.72,3.288,1.783,2.053,5.636.762,7.528,2.718.85.879,1.044,2.175,1.571,3.274.781,1.631,2.321,2.825,4.023,3.469,1.702.645,3.559.786,5.381.719,3.835-.14,7.634-1.184,10.993-3.022,3.231-1.767,6.274-4.713,6.34-8.369.018-.986-.184-1.938-.543-2.843-1.024,2.478-3.357,4.485-5.798,5.82Z"/>
    <path class="st5" d="M116.981,215.907c-6.32-5.762-15.08-6.459-23.157-3.565-2.153.78-4.26,1.776-5.995,3.26-1.736,1.484-3.081,3.5-3.416,5.746-.166,1.113-.048,2.34.658,3.214.02.025.041.05.062.074,1.783,2.053,5.636.763,7.528,2.718.85.879,1.044,2.175,1.571,3.274.781,1.631,2.321,2.825,4.023,3.469,1.702.645,3.559.786,5.381.719,3.835-.14,7.634-1.184,10.993-3.022,2.441-1.335,4.774-3.342,5.798-5.82.332-.803.527-1.655.543-2.549.053-2.919-1.82-5.543-3.988-7.52Z"/>
    <path class="st4" d="M110.597,215.238c-4.03-3.675-9.618-4.119-14.769-2.274-1.373.497-2.717,1.133-3.824,2.079-1.107.946-1.965,2.232-2.178,3.665-.109.73-.026,1.538.459,2.097,1.137,1.31,3.595.486,4.801,1.734.542.56.666,1.387,1.002,2.088.498,1.04,1.48,1.801,2.566,2.213,1.085.411,2.27.501,3.431.459,2.446-.089,4.869-.755,7.011-1.927,2.061-1.127,4.002-3.006,4.044-5.337.034-1.862-1.161-3.535-2.544-4.796Z"/>
    <path class="st7" d="M282.445,135.262c1.783,2.053,5.636.762,7.528,2.718.85.879,1.044,2.175,1.571,3.274.781,1.631,2.321,2.825,4.023,3.469,1.702.645,3.559.786,5.38.719,3.835-.14,7.634-1.184,10.994-3.022,3.231-1.767,6.274-4.713,6.34-8.369.018-.986-.184-1.938-.543-2.843-1.024,2.478-3.357,4.485-5.798,5.82-3.36,1.838-7.159,2.882-10.994,3.022-1.821.067-3.679-.074-5.38-.719-1.702-.645-3.243-1.839-4.023-3.469-.526-1.099-.721-2.396-1.571-3.275-1.891-1.956-5.745-.665-7.528-2.718-.021-.025-.042-.05-.062-.075-.318.692-.545,1.422-.658,2.178-.17,1.145-.042,2.411.72,3.288Z"/>
    <path class="st5" d="M314.293,121.14c-6.319-5.762-15.08-6.459-23.157-3.565-2.153.78-4.26,1.776-5.996,3.26-1.735,1.484-3.081,3.5-3.416,5.746-.166,1.113-.048,2.34.658,3.214.02.025.041.05.062.075,1.783,2.053,5.636.763,7.528,2.718.85.879,1.044,2.175,1.571,3.275.781,1.631,2.321,2.825,4.023,3.469,1.702.645,3.559.786,5.38.719,3.835-.14,7.634-1.184,10.994-3.022,2.441-1.335,4.773-3.342,5.798-5.82.332-.803.527-1.655.543-2.549.053-2.919-1.82-5.543-3.988-7.52Z"/>
    <path class="st4" d="M287.597,126.039c1.137,1.31,3.595.486,4.801,1.734.542.56.666,1.387,1.002,2.088.498,1.04,1.48,1.801,2.566,2.213s2.27.501,3.431.459c2.446-.089,4.869-.755,7.011-1.927,2.061-1.127,4.001-3.006,4.044-5.338.034-1.861-1.161-3.535-2.544-4.796-4.03-3.675-9.618-4.119-14.769-2.274-1.373.497-2.717,1.133-3.824,2.079-1.107.946-1.965,2.232-2.178,3.665-.109.73-.026,1.537.459,2.097Z"/>
    <path class="st7" d="M318.949,211.723c.061,1.652-.735,3.369-1.765,4.736-1.418,1.881-3.286,3.426-5.407,4.472-1.007.497-2.088.886-3.211.952-1.123.067-2.297-.216-3.155-.937-.579-.486-1.022-1.166-1.726-1.446-1.567-.623-3.402,1.075-4.933.369-.018-.009-.036-.018-.054-.027,0,.47.059.938.19,1.392.198.687.596,1.367,1.251,1.668,1.531.705,3.367-.993,4.933-.37.704.28,1.147.96,1.725,1.446.858.72,2.032,1.003,3.155.937,1.123-.067,2.204-.456,3.211-.952,2.121-1.046,3.99-2.591,5.407-4.472,1.363-1.809,2.318-4.234,1.415-6.307-.243-.559-.602-1.043-1.036-1.462Z"/>
    <path class="st5" d="M318.949,211.723c-.02-.535-.129-1.064-.35-1.571-.721-1.655-2.449-2.659-4.177-3.224-5.036-1.647-10.143.17-13.943,3.835-1.011.982-1.94,2.074-2.535,3.346-.595,1.272-.833,2.746-.444,4.094.193.667.575,1.327,1.196,1.64.018.009.036.019.054.027,1.531.705,3.367-.993,4.933-.369.704.28,1.147.96,1.726,1.446.858.72,2.032,1.003,3.155.937,1.123-.067,2.204-.456,3.211-.952,2.121-1.046,3.99-2.591,5.407-4.472,1.03-1.366,1.826-3.084,1.765-4.736Z"/>
    <path class="st4" d="M300.665,216.417c.976.45,2.147-.633,3.146-.236.449.179.731.612,1.1.922.548.459,1.296.64,2.012.597.716-.043,1.406-.291,2.048-.608,1.353-.667,2.544-1.653,3.449-2.852.869-1.154,1.478-2.7.902-4.022-.46-1.056-1.562-1.696-2.664-2.056-3.212-1.051-6.469.109-8.892,2.446-.645.626-1.237,1.322-1.616,2.134-.379.811-.531,1.751-.283,2.611.127.438.38.872.798,1.064Z"/>
    <path class="st7" d="M323.467,161.375c-1.717.413-3.531.42-5.251.022-.817-.189-1.624-.475-2.301-.965-.677-.491-1.215-1.206-1.362-2.024-.099-.551-.027-1.15-.297-1.643-.601-1.096-2.47-.985-3.01-2.111-.007-.014-.012-.027-.018-.041-.226.27-.417.567-.559.889-.216.488-.314,1.065-.083,1.546.54,1.126,2.409,1.015,3.01,2.111.27.492.198,1.091.297,1.643.147.818.685,1.533,1.362,2.024.677.491,1.484.776,2.301.965,1.72.398,3.535.391,5.251-.022,1.651-.397,3.363-1.34,3.84-2.955.129-.436.155-.883.107-1.328-.758.977-2.039,1.589-3.286,1.888Z"/>
    <path class="st5" d="M326.456,154.602c-2.101-3.317-5.906-4.678-9.846-4.363-1.052.088-2.109.277-3.061.728-.952.45-1.796,1.184-2.22,2.142-.21.474-.307,1.033-.1,1.505.006.014.011.028.018.041.54,1.126,2.409,1.015,3.01,2.111.27.492.198,1.091.297,1.643.147.818.685,1.533,1.362,2.024.677.491,1.484.776,2.301.965,1.72.398,3.535.391,5.251-.022,1.247-.3,2.528-.911,3.286-1.888.246-.317.437-.671.553-1.067.381-1.29-.13-2.68-.851-3.818Z"/>
    <path class="st4" d="M315.471,151.221c-.607.287-1.146.755-1.416,1.366-.138.311-.2.679-.053.986.345.718,1.537.648,1.92,1.346.172.314.126.696.189,1.048.094.522.437.978.869,1.291.432.313.947.495,1.467.616,1.097.254,2.254.249,3.349-.014,1.053-.253,2.145-.854,2.449-1.885.243-.823-.083-1.709-.543-2.435-1.34-2.116-3.766-2.984-6.28-2.783-.671.056-1.345.177-1.952.464Z"/>
    <path class="st7" d="M96.998,194.184c-.27.492-.198,1.091-.297,1.643-.147.818-.685,1.533-1.362,2.023-.677.491-1.484.776-2.301.965-1.72.398-3.535.391-5.251-.022-1.247-.3-2.528-.911-3.286-1.888-.049.445-.022.892.107,1.328.477,1.615,2.189,2.558,3.84,2.955,1.717.413,3.531.42,5.251.022.817-.189,1.624-.475,2.301-.965.677-.491,1.215-1.206,1.362-2.023.099-.551.027-1.15.297-1.643.601-1.096,2.47-.985,3.01-2.111.231-.481.133-1.059-.083-1.546-.143-.322-.333-.619-.559-.889-.006.014-.011.028-.018.041-.54,1.126-2.409,1.015-3.01,2.111Z"/>
    <path class="st5" d="M99.925,190.527c-.423-.957-1.268-1.691-2.22-2.142-.952-.45-2.01-.64-3.061-.728-3.941-.315-7.746,1.046-9.846,4.363-.721,1.138-1.231,2.528-.851,3.818.117.395.308.75.553,1.067.758.977,2.039,1.589,3.286,1.888,1.717.413,3.531.42,5.251.022.817-.189,1.624-.475,2.301-.965.677-.491,1.215-1.206,1.362-2.023.099-.551.027-1.15.297-1.643.601-1.096,2.47-.985,3.01-2.111.007-.014.012-.027.018-.041.206-.473.109-1.031-.1-1.505Z"/>
    <path class="st4" d="M87.008,193.393c.304,1.03,1.396,1.632,2.449,1.884,1.095.263,2.252.268,3.349.014.521-.121,1.036-.303,1.468-.616.432-.313.775-.769.869-1.291.063-.352.017-.734.189-1.048.383-.699,1.575-.628,1.92-1.346.147-.307.085-.675-.053-.986-.27-.61-.809-1.078-1.416-1.366-.607-.287-1.282-.408-1.952-.464-2.513-.201-4.94.667-6.28,2.783-.46.726-.785,1.613-.542,2.435Z"/>
    <path class="st7" d="M194.86,294.471c-1.717.413-3.531.42-5.251.022-.817-.189-1.624-.475-2.301-.965-.677-.491-1.215-1.206-1.362-2.024-.099-.551-.027-1.15-.297-1.643-.6-1.096-2.47-.985-3.01-2.111-.006-.014-.012-.028-.018-.041-.226.269-.417.566-.559.889-.216.488-.314,1.065-.083,1.547.54,1.126,2.41,1.015,3.01,2.111.27.492.198,1.091.297,1.643.147.818.685,1.533,1.362,2.024.677.491,1.484.776,2.301.965,1.72.398,3.535.391,5.251-.022,1.651-.397,3.363-1.34,3.84-2.955.129-.436.155-.883.107-1.328-.758.977-2.039,1.589-3.286,1.888Z"/>
    <path class="st5" d="M197.848,287.698c-2.101-3.317-5.906-4.678-9.846-4.363-1.051.088-2.109.277-3.061.727-.952.451-1.796,1.184-2.22,2.142-.21.474-.307,1.033-.101,1.505.006.014.012.028.018.041.54,1.126,2.41,1.015,3.01,2.111.27.492.198,1.091.297,1.643.147.818.685,1.533,1.362,2.024.677.491,1.484.776,2.301.965,1.72.398,3.535.391,5.251-.022,1.247-.3,2.528-.911,3.286-1.888.245-.317.437-.671.553-1.067.381-1.29-.13-2.68-.851-3.818Z"/>
    <path class="st4" d="M195.096,286.634c-1.34-2.116-3.766-2.984-6.28-2.783-.671.056-1.345.177-1.952.464-.607.287-1.146.755-1.416,1.366-.138.311-.2.679-.053.986.345.718,1.537.647,1.92,1.346.172.314.126.696.189,1.048.094.521.437.978.869,1.29s.947.495,1.468.616c1.097.254,2.254.249,3.349-.014,1.053-.253,2.145-.854,2.449-1.885.243-.823-.083-1.709-.542-2.435Z"/>
    <path class="st7" d="M197.047,55.363c-1.692,1.264-3.686,2.128-5.771,2.5-.99.177-2.017.243-2.998.022-.981-.221-1.917-.755-2.472-1.586-.374-.56-.583-1.254-1.116-1.669-1.188-.923-3.193.08-4.329-.905-.014-.012-.026-.025-.039-.037-.119.403-.187.82-.189,1.243-.003.639.167,1.321.652,1.742,1.136.985,3.141-.018,4.329.905.534.415.742,1.108,1.116,1.669.555.831,1.491,1.365,2.472,1.586.981.221,2.007.155,2.998-.022,2.085-.373,4.08-1.236,5.772-2.5,1.627-1.215,3.059-3.061,2.807-5.064-.068-.54-.253-1.045-.52-1.512-.365,1.433-1.482,2.711-2.711,3.628Z"/>
    <path class="st5" d="M199.854,50.299c-.201-1.6-1.431-2.89-2.772-3.803-3.908-2.662-8.751-2.366-12.939-.161-1.116.592-2.189,1.3-3.021,2.245-.832.945-1.409,2.151-1.415,3.405-.003.621.159,1.282.613,1.705.013.012.026.025.039.037,1.136.985,3.141-.018,4.329.905.534.415.742,1.108,1.116,1.669.555.831,1.491,1.365,2.472,1.586.981.221,2.007.155,2.998-.022,2.085-.372,4.08-1.236,5.771-2.5,1.229-.918,2.346-2.195,2.711-3.628.118-.464.158-.945.096-1.436Z"/>
    <path class="st4" d="M182.875,51.235c.725.628,2.003-.012,2.761.577.34.264.473.707.712,1.064.354.53.951.87,1.577,1.011s1.28.099,1.912-.014c1.33-.237,2.602-.789,3.681-1.594,1.038-.775,1.951-1.952,1.79-3.23-.128-1.02-.913-1.843-1.768-2.425-2.492-1.698-5.581-1.509-8.252-.103-.712.378-1.396.829-1.927,1.432-.53.603-.898,1.372-.902,2.171-.002.408.107.843.416,1.111Z"/>
    <path class="st7" d="M190.726,308.935c-.611-1.055-.486-2.36-.73-3.553-.362-1.769-1.567-3.295-3.063-4.326-1.495-1.031-3.264-1.61-5.048-1.98-3.757-.778-7.697-.669-11.405.314-2.801.743-5.666,2.22-7.227,4.533-.426.631-.755,1.323-.959,2.081-.257.952-.292,1.925-.163,2.889,1.596-2.161,4.348-3.554,7.041-4.268,3.707-.983,7.648-1.092,11.405-.314,1.784.369,3.553.948,5.048,1.98,1.495,1.031,2.701,2.557,3.063,4.326.244,1.193.118,2.497.73,3.552,1.361,2.349,5.415,2.014,6.647,4.432.015.029.029.058.042.087.477-.596.875-1.25,1.168-1.957.443-1.07.626-2.33.099-3.363-.076-.149-.163-.288-.26-.418-1.463-1.969-5.111-1.81-6.388-4.014Z"/>
    <path class="st5" d="M196.106,318.687c-.014-.029-.028-.058-.042-.087-1.232-2.418-5.286-2.083-6.647-4.432-.611-1.055-.486-2.36-.73-3.552-.362-1.769-1.567-3.295-3.063-4.326-1.495-1.031-3.264-1.61-5.048-1.98-3.756-.778-7.697-.669-11.405.314-2.693.714-5.445,2.107-7.041,4.268-.517.7-.913,1.48-1.146,2.345-.76,2.821.421,5.814,2.045,8.249,4.735,7.098,13.069,9.861,21.612,8.976,2.279-.244,4.566-.709,6.611-1.736,2.045-1.027,3.84-2.663,4.711-4.764.431-1.041.615-2.26.142-3.276Z"/>
    <path class="st4" d="M190.132,321.091c-.786-1.542-3.371-1.328-4.239-2.827-.39-.673-.31-1.505-.465-2.266-.231-1.128-1-2.101-1.953-2.759s-2.082-1.027-3.219-1.263c-2.396-.496-4.909-.427-7.273.2-2.274.603-4.614,1.965-5.221,4.218-.485,1.799.268,3.708,1.305,5.261,3.02,4.527,8.335,6.289,13.783,5.725,1.454-.155,2.912-.452,4.216-1.107,1.304-.655,2.449-1.699,3.004-3.038.283-.683.399-1.486.063-2.145Z"/>
    <path class="st7" d="M293.485,284.943c-1.711-.808-3.355-1.824-4.611-3.23-1.256-1.407-2.095-3.243-2.022-5.118.049-1.265.5-2.553.145-3.768-.793-2.706-4.973-3.354-5.618-6.098-.008-.033-.015-.065-.021-.098-.63.487-1.195,1.051-1.666,1.694-.714.974-1.211,2.203-.935,3.375.645,2.744,4.826,3.393,5.618,6.098.356,1.216-.095,2.504-.145,3.768-.032.813.108,1.619.379,2.385.354,1.002.931,1.936,1.643,2.733,1.255,1.406,2.899,2.423,4.611,3.23,3.604,1.701,7.614,2.551,11.605,2.46,3.839-.087,8.077-1.352,9.916-4.69.496-.9.773-1.874.882-2.88-2.149,1.795-5.276,2.533-8.176,2.599-3.991.091-8.001-.759-11.605-2.46Z"/>
    <path class="st5" d="M314.986,273.877c-1.026-2.827-2.597-5.249-4.569-7.263-3.837-3.919-9.198-6.289-15.046-7.073-2.364-.309-4.792-.396-7.113.144-2.322.54-4.543,1.757-5.944,3.668-.694.947-1.183,2.135-.956,3.277.006.033.013.065.021.098.645,2.744,4.826,3.392,5.618,6.098.356,1.215-.095,2.504-.145,3.768-.073,1.876.766,3.712,2.022,5.118,1.255,1.406,2.899,2.423,4.611,3.23,3.604,1.701,7.614,2.551,11.605,2.46,2.899-.066,6.026-.804,8.176-2.599.696-.582,1.29-1.274,1.74-2.091,1.468-2.666,1.018-5.979-.019-8.836Z"/>
    <path class="st4" d="M296.916,261.072c-1.508-.197-3.056-.252-4.536.092-1.481.344-2.897,1.12-3.791,2.339-.455.621-.772,1.405-.597,2.152.411,1.75,3.078,2.164,3.583,3.889.227.775-.061,1.597-.092,2.403-.047,1.196.489,2.367,1.289,3.264.801.897,1.849,1.545,2.941,2.06,2.298,1.085,4.856,1.627,7.401,1.569,2.448-.056,5.151-.862,6.324-2.991.937-1.7.649-3.813-.012-5.635-1.928-5.311-6.863-8.386-12.51-9.143Z"/>
    <path class="st7" d="M98.973,131.947c-1.648-.778-3.231-1.756-4.44-3.11-1.209-1.355-2.017-3.122-1.947-4.929.048-1.218.482-2.458.139-3.629-.763-2.605-4.788-3.23-5.41-5.872-.008-.032-.014-.063-.02-.095-.607.469-1.15,1.012-1.604,1.631-.687.938-1.166,2.121-.901,3.25.621,2.642,4.646,3.267,5.41,5.872.343,1.17-.092,2.411-.139,3.629-.071,1.806.738,3.574,1.947,4.928,1.209,1.354,2.792,2.333,4.44,3.11,3.47,1.638,7.331,2.456,11.175,2.369,3.696-.084,7.777-1.301,9.548-4.516.478-.867.744-1.805.849-2.773-2.07,1.729-5.081,2.439-7.873,2.503-3.843.087-7.704-.731-11.175-2.369Z"/>
    <path class="st5" d="M119.678,121.291c-2.911-8.019-10.362-12.662-18.888-13.805-2.277-.297-4.614-.381-6.849.139-2.236.52-4.374,1.692-5.724,3.532-.668.912-1.139,2.055-.921,3.155.006.032.013.063.02.095.621,2.642,4.647,3.267,5.41,5.872.343,1.17-.091,2.411-.139,3.629-.071,1.806.738,3.574,1.947,4.929,1.209,1.354,2.792,2.333,4.44,3.11,3.47,1.638,7.331,2.456,11.175,2.369,2.792-.064,5.803-.774,7.873-2.503.671-.56,1.242-1.227,1.676-2.014,1.414-2.567.98-5.757-.019-8.508Z"/>
    <path class="st4" d="M93.684,113.374c.396,1.685,2.963,2.083,3.45,3.745.219.746-.058,1.538-.089,2.314-.045,1.152.47,2.279,1.242,3.143.771.864,1.78,1.488,2.831,1.984,2.213,1.045,4.676,1.566,7.127,1.511,2.357-.054,4.96-.83,6.09-2.88.902-1.637.625-3.672-.012-5.426-1.857-5.114-6.609-8.075-12.046-8.804-1.452-.189-2.943-.243-4.368.089-1.426.331-2.79,1.079-3.65,2.252-.438.598-.744,1.353-.574,2.073Z"/>
    <path class="st5" d="M372.54,107.383c-2.214-1.687-4.624-3.186-7.298-3.988-.034-.01-.068-.02-.102-.03-2.647-.773-5.577-.815-8.098.294-1.301.573-2.533,1.53-2.948,2.879-.972,3.157,2.883,6.244,2.083,9.448-.359,1.439-1.58,2.483-2.379,3.737-1.186,1.859-1.422,4.209-.982,6.365.44,2.156,1.504,4.141,2.761,5.955,2.646,3.819,6.209,7.012,10.309,9.239,3.944,2.142,8.99,3.324,12.833,1.008,1.251-.754,2.242-1.803,3.021-3.017,1.131-1.765,1.815-3.88,2.194-5.953,1.868-10.201-3.121-19.588-11.396-25.937Z"/>
    <path class="st4" d="M361.435,109.294c-.62,2.013,1.839,3.982,1.329,6.026-.229.918-1.007,1.584-1.517,2.383-.756,1.186-.907,2.684-.626,4.059.28,1.375.959,2.641,1.761,3.798,1.688,2.436,3.96,4.472,6.575,5.892,2.515,1.366,5.734,2.12,8.184.643,1.957-1.179,2.917-3.489,3.326-5.721,1.191-6.506-1.99-12.492-7.268-16.541-1.412-1.076-2.949-2.032-4.654-2.543-1.705-.511-3.601-.548-5.23.169-.83.365-1.615.976-1.88,1.836Z"/>
    <path class="st5" d="M348.791,338.174c-.254-.874-.638-1.705-1.168-2.451-.665-.936-1.627-1.757-2.777-1.873-2.69-.27-4.566,3.254-7.268,3.127-1.213-.057-2.244-.856-3.377-1.289-1.681-.643-3.606-.46-5.27.225-1.664.685-3.093,1.837-4.353,3.112-2.654,2.687-4.661,5.997-5.807,9.58-1.089,3.404-1.256,7.509,1.117,10.179.029.033.059.066.089.099,1.968,2.129,5.116,2.748,8.03,2.704,8.493-.129,15.255-5.537,19.059-13.059,1.008-2.011,1.835-4.146,2.059-6.381.133-1.327.039-2.696-.332-3.974Z"/>
    <path class="st4" d="M343.784,340.072c-1.716-.172-2.912,2.075-4.635,1.994-.774-.036-1.431-.546-2.154-.822-1.072-.41-2.3-.294-3.361.143s-1.972,1.171-2.776,1.985c-1.693,1.713-2.973,3.825-3.704,6.11-.703,2.198-.804,4.854.769,6.555,1.255,1.358,3.262,1.753,5.121,1.724,5.416-.082,9.729-3.531,12.155-8.329.643-1.283,1.17-2.644,1.313-4.069.143-1.425-.125-2.926-.957-4.097-.424-.597-1.038-1.121-1.771-1.194Z"/>
    <path class="st5" d="M117.668,346.373c-4.28-7.098-12.248-10.146-20.582-9.661-2.224.137-4.465.489-6.496,1.396-2.031.907-3.847,2.418-4.786,4.419-.478,1.02-.711,2.235-.247,3.261,1.088,2.401,5.039,2.253,6.256,4.593.547,1.051.366,2.312.55,3.481.272,1.733,1.375,3.267,2.781,4.334,1.406,1.067,3.097,1.706,4.812,2.143,3.612.919,7.443.986,11.086.194,3.504-.762,7.161-2.674,8.243-6.062.864-2.705-.149-5.663-1.618-8.099Z"/>
    <path class="st4" d="M111.906,344.003c-2.73-4.527-7.812-6.471-13.126-6.161-1.418.087-2.848.312-4.143.89-1.295.579-2.454,1.542-3.052,2.818-.305.65-.454,1.425-.157,2.08.694,1.532,3.214,1.437,3.99,2.93.349.671.234,1.475.351,2.22.174,1.105.877,2.084,1.773,2.764.897.68,1.975,1.088,3.069,1.367,2.304.586,4.747.629,7.07.124,2.235-.486,4.567-1.705,5.257-3.866.551-1.725-.095-3.611-1.032-5.165Z"/>
    <path class="st5" d="M123.61,29.451c-.801-2.488-3.026-4.241-5.416-5.401-.207-.1-.415-.196-.624-.288-7.631-3.351-15.914-1.285-22.437,3.873-1.736,1.383-3.362,2.951-4.492,4.853-1.13,1.902-1.733,4.173-1.334,6.345.073.396.186.794.346,1.168.287.672.725,1.268,1.353,1.636,2.288,1.339,5.428-1.04,7.785.176,1.059.546,1.646,1.679,2.477,2.529,1.232,1.26,3.026,1.883,4.796,1.95,1.77.068,3.524-.377,5.179-1,3.486-1.314,6.654-3.448,9.167-6.178,2.418-2.625,4.291-6.277,3.2-9.662Z"/>
    <path class="st4" d="M94.542,36.519c1.459.854,3.462-.663,4.965.112.675.348,1.05,1.071,1.58,1.613.786.803,1.93,1.201,3.059,1.244,1.128.043,2.247-.24,3.303-.638,2.223-.838,4.243-2.199,5.846-3.94,1.542-1.674,2.736-4.003,2.041-6.162-.555-1.724-2.182-2.895-3.852-3.629-4.867-2.137-10.15-.82-14.31,2.47-1.107.882-2.144,1.882-2.865,3.095-.721,1.213-1.106,2.662-.851,4.046.13.706.46,1.423,1.083,1.788Z"/>
    <path class="st5" d="M47.577,203.088c-1.113-3.447-3.127-6.927-6.083-8.86-.958-.626-2.014-1.09-3.171-1.338-1.99-.426-4.009-.15-5.93.538-1.724.617-3.369,1.564-4.843,2.632-9.083,6.584-12.211,17.563-10.505,28.582.465,2.94,1.224,5.875,2.709,8.461,1.485,2.586,3.761,4.812,6.592,5.808,1.443.507,3.119.665,4.451-.082,3.118-1.749,2.42-6.984,5.439-8.896,1.356-.859,3.088-.778,4.649-1.169,2.315-.58,4.255-2.239,5.524-4.243,1.269-2.003,1.923-4.333,2.299-6.669.792-4.919.401-10.021-1.132-14.765Z"/>
    <path class="st4" d="M31.933,201.998c-2.408-.515-4.883.581-6.871,2.022-5.793,4.199-7.788,11.201-6.7,18.229.297,1.875.781,3.747,1.728,5.396.947,1.65,2.399,3.069,4.204,3.704.92.324,1.989.424,2.839-.053,1.989-1.115,1.544-4.454,3.469-5.673.865-.548,1.97-.496,2.965-.746,1.476-.37,2.714-1.428,3.523-2.706.809-1.278,1.226-2.763,1.466-4.253.505-3.137.256-6.391-.722-9.417-.94-2.91-2.886-5.858-5.902-6.504Z"/>
    <path class="st8" d="M290.722,352.452c-.971-.259-1.94.34-2.782.884-1.103.714-2.238,1.377-3.4,1.988-11.096,5.841-24.659,7.01-36.569,2.993-4.749-1.602-9.468-4.011-14.469-3.622-3.982.31-7.572,2.365-11.137,4.148-11.489,5.745-24.562,9.097-37.294,7.23-11.519-1.689-22.234-7.528-33.859-8.199-2.026-.117-4.141-.057-5.961.834-1.82.891-3.261,2.807-3.013,4.803.184,1.485,1.222,2.714,2.282,3.78,4.194,4.22,9.369,7.339,14.585,10.232,5.629,3.122,11.448,6.063,17.725,7.537,6.277,1.474,13.117,1.378,18.924-1.405,5.218-2.501,9.624-7.113,15.391-7.695,5.434-.548,10.434,2.65,15.639,4.29,10.72,3.377,22.347.074,32.844-3.933,6.766-2.583,13.472-5.54,19.472-9.614,1.596-1.083,15.666-13.169,11.622-14.25Z"/>
    <path class="st8" d="M372.573,229.034c-.405.452-.339,1.136-.268,1.736.092.787.149,1.577.169,2.367.198,7.55-2.835,15.162-8.263,20.481-2.164,2.12-4.764,4.006-5.905,6.802-.909,2.226-.754,4.713-.742,7.114.039,7.736-1.664,15.675-6.136,22.018-4.046,5.738-10.149,9.921-13.665,15.992-.613,1.058-1.153,2.212-1.157,3.432-.004,1.22.656,2.514,1.818,2.921.864.303,1.819.077,2.69-.204,3.45-1.113,6.561-3.052,9.56-5.074,3.236-2.182,6.424-4.516,8.933-7.493,2.508-2.977,4.308-6.682,4.354-10.559.042-3.484-1.294-7.103-.051-10.363,1.171-3.071,4.279-4.894,6.588-7.25,4.755-4.852,6.093-12,6.739-18.732.416-4.339.611-8.746.002-13.077-.162-1.152-2.978-11.993-4.666-10.11Z"/>
    <path class="st8" d="M20.354,151.36c.328.582,4.309,5.688,5.123,4.164.196-.366.021-.721-.14-1.028-.211-.403-.399-.819-.561-1.245-1.553-4.072-.883-9.125,1.873-13.625,1.099-1.794,2.543-3.587,2.808-5.451.211-1.484-.363-2.799-.821-4.109-1.478-4.22-1.789-9.063.114-13.842,1.722-4.324,5.158-8.401,6.451-12.752.225-.759.382-1.548.156-2.217s-.925-1.183-1.805-1.066c-.654.087-1.272.491-1.822.9-2.177,1.62-3.965,3.592-5.659,5.577-1.829,2.142-3.596,4.353-4.772,6.716s-1.726,4.918-1.031,7.052c.624,1.918,2.227,3.506,1.979,5.654-.234,2.023-2.041,3.931-3.196,5.896-2.379,4.047-1.963,8.35-1.147,12.221.526,2.495,1.218,4.964,2.451,7.154Z"/>
    <path class="st8" d="M77.802,324.842c-.71-.363-1.403-.759-2.077-1.183-6.433-4.055-11.114-10.798-12.536-18.228-.567-2.962-.694-6.151-2.398-8.65-1.357-1.99-3.526-3.252-5.543-4.583-6.5-4.289-12.198-10.123-15.011-17.34-2.546-6.529-2.639-13.879-5.759-20.159-.544-1.095-1.209-2.182-2.228-2.868-1.019-.685-2.472-.865-3.461-.139-.736.541-1.081,1.451-1.332,2.324-.995,3.456-1.109,7.095-1.091,10.688.02,3.877.193,7.8,1.285,11.524s3.19,7.271,6.411,9.476c2.894,1.981,6.671,2.905,8.707,5.746,1.918,2.678,1.709,6.249,2.392,9.462,1.407,6.616,6.646,11.709,11.922,15.999,3.401,2.765,6.984,5.387,10.951,7.307,1.055.51,11.707,4.253,11.073,1.814-.152-.585-.762-.913-1.304-1.19Z"/>
  </g>
  <g>
    <ellipse class="st0" cx="146.997" cy="199.329" rx="18.334" ry="10.286"/>
    <ellipse class="st0" cx="253.003" cy="199.329" rx="18.334" ry="10.286"/>
    <path class="st0" d="M195.941,202.859c-4.415,0-8.337,2.957-10.813,7.535.657,9.638,6.447,17.177,13.496,17.177,4.418,0,8.34-2.963,10.816-7.545-.66-9.634-6.451-17.167-13.498-17.167Z"/>
    <path class="st6" d="M192.016,191.963c-.087.068-.173.137-.258.208-.081.067-.161.135-.241.204-.043.037-.086.075-.129.113-.209.185-.414.377-.614.577-.133.132-.264.268-.393.407-3.233,3.474-5.318,8.942-5.318,15.093,0,.619.021,1.231.063,1.835,2.476-4.581,6.4-7.541,10.816-7.541,7.048,0,12.84,7.536,13.499,17.172.592-1.095,1.102-2.284,1.515-3.546,0,0,0,0,0-.001.113-.343.218-.692.316-1.046,0-.002,0-.003.001-.005.098-.354.188-.713.271-1.076,0-.001,0-.003,0-.004.054-.24.106-.481.154-.724,0-.005.002-.011.003-.016.023-.119.046-.239.068-.359.001-.006.002-.012.003-.019.044-.242.084-.485.121-.73.001-.008.002-.015.004-.023.018-.122.036-.245.052-.368,0-.003,0-.006.001-.009.033-.25.064-.501.09-.754,0-.007.002-.015.002-.022.026-.252.049-.505.068-.76,0-.005,0-.011.001-.016.009-.125.018-.251.025-.377,0-.009.001-.017.002-.026.015-.254.026-.509.034-.765,0-.008,0-.017,0-.026.004-.127.007-.254.009-.381,0-.008,0-.015,0-.023.002-.13.003-.26.003-.39,0-5.674-1.774-10.767-4.587-14.25-.134-.165-.269-.327-.407-.484-.128-.147-.258-.29-.391-.43-.286-.303-.58-.591-.883-.862-.08-.072-.161-.143-.243-.212-.078-.067-.158-.133-.237-.198-.089-.073-.179-.144-.269-.214-1.941-1.502-4.172-2.357-6.545-2.357-2.399,0-4.653.873-6.608,2.405Z"/>
    <path class="st6" d="M187.999,165.994c.041-1.078-.504-2.081-1.43-2.635l-32.717-19.546c-1.394-.833-3.199-.378-4.031,1.016-.833,1.394-.378,3.199,1.016,4.031h0l28.106,16.791-29.734,14.846c-1.453.725-2.042,2.491-1.317,3.943.725,1.453,2.491,2.042,3.944,1.317l34.539-17.245c.965-.482,1.584-1.441,1.624-2.519Z"/>
    <path class="st6" d="M213.702,168.513l34.539,17.245c1.453.725,3.218.136,3.943-1.317.725-1.453.136-3.218-1.317-3.943l-29.734-14.846,28.106-16.792c1.394-.833,1.849-2.637,1.016-4.031-.833-1.394-2.638-1.849-4.031-1.016h0l-32.717,19.546c-.926.553-1.471,1.557-1.43,2.635.041,1.078.659,2.038,1.625,2.519Z"/>
  </g>
</svg>